<?xml version="1.0" encoding="utf-8"?>
<!-- Generator: Adobe Illustrator 19.0.0, SVG Export Plug-In . SVG Version: 6.00 Build 0)  -->
<svg version="1.1" id="Layer_1" xmlns="http://www.w3.org/2000/svg" xmlns:xlink="http://www.w3.org/1999/xlink" x="0px" y="0px"
	 viewBox="-591 377 40 40" style="enable-background:new -591 377 40 40;" xml:space="preserve">
<style type="text/css">
	.st0{fill:#C2BFD9;}
</style>
<path class="st0" d="M-571,382c-8.3,0-15,6.7-15,15s6.7,15,15,15s15-6.7,15-15S-562.7,382-571,382z M-571,410c-7.2,0-13-5.8-13-13
	s5.8-13,13-13s13,5.8,13,13S-563.8,410-571,410z"/>
<g>
	<path class="st0" d="M-571,390c-2.2,0-4,1.7-4,3.8h2c0-1,0.9-1.8,2-1.8s2,0.8,2,1.8c0,0.4-0.8,1-1.2,1.5c-0.9,0.8-1.8,1.6-1.8,2.7
		v2l2,0v-2c0-0.2,0.7-0.9,1.1-1.2c0.9-0.8,1.9-1.7,1.9-3C-567,391.7-568.8,390-571,390z"/>
	<rect x="-572" y="402" class="st0" width="2" height="2"/>
</g>
</svg>
