<?xml version="1.0" encoding="utf-8"?>
<!-- Generator: Adobe Illustrator 19.0.0, SVG Export Plug-In . SVG Version: 6.00 Build 0)  -->
<svg version="1.1" id="Layer_2" xmlns="http://www.w3.org/2000/svg" xmlns:xlink="http://www.w3.org/1999/xlink" x="0px" y="0px"
	 viewBox="-861 1363 180 140" style="enable-background:new -861 1363 180 140;" xml:space="preserve">
<style type="text/css">
	.st0{fill:#FFFFFF;}
</style>
<g>
	<path class="st0" d="M-731.1,1379.7c0-5.3-4.4-9.3-9.3-9.3h-56.8c-5.3,0-9.3,4.4-9.3,9.3v106.5c0,5.3,4.4,9.3,9.3,9.3h56.4
		c5.3,0,9.8-4.4,9.8-9.3V1379.7L-731.1,1379.7z M-797.2,1486.3v-106.5h56.4v106.5H-797.2z"/>
	<path class="st0" d="M-837.6,1447.2c-10.2-10.2-10.2-27.1,0-37.7c3.1-3.1,7.1-5.3,11.1-6.7v-8.9c-6.2,1.3-12.4,4.4-17.3,9.3
		c-13.8,13.8-13.8,36.4,0,50.1l-9.3,9.3h25.3v-25.3L-837.6,1447.2z"/>
	<path class="st0" d="M-713.8,1393.9v25.3l9.3-9.3c10.2,10.2,10.2,27.1,0,37.7c-3.1,3.1-7.1,5.3-11.1,6.7v9.3
		c6.2-1.3,12.4-4.4,17.3-9.3c13.8-13.8,13.8-36.4,0-50.1l9.3-10.2H-713.8z"/>
</g>
</svg>
