<?xml version="1.0" encoding="utf-8"?>
<!-- Generator: Adobe Illustrator 19.0.0, SVG Export Plug-In . SVG Version: 6.00 Build 0)  -->
<svg version="1.1" xmlns="http://www.w3.org/2000/svg" xmlns:xlink="http://www.w3.org/1999/xlink" x="0px" y="0px"
	 viewBox="0 0 80 80" style="enable-background:new 0 0 80 80;" xml:space="preserve">
<style type="text/css">
	.st0{fill:#C2BFD9;}
</style>
<g id="Layer_1">
</g>
<g id="Layer_2">
	<path id="XMLID_58_" class="st0" d="M44.5,43c1.6-1.9,2.5-4.3,2.5-7c0-6.1-4.9-11-11-11s-11,4.9-11,11s4.9,11,11,11
		c2.7,0,5.1-0.9,7-2.5l12.2,12.2l1.4-1.4L44.5,43z M36,45c-5,0-9-4-9-9c0-5,4-9,9-9s9,4,9,9C45,41,41,45,36,45z"/>
</g>
</svg>
