<?xml version="1.0" encoding="utf-8"?>
<!-- Generator: Adobe Illustrator 19.0.0, SVG Export Plug-In . SVG Version: 6.00 Build 0)  -->
<svg version="1.1" id="Layer_1" xmlns="http://www.w3.org/2000/svg" xmlns:xlink="http://www.w3.org/1999/xlink" x="0px" y="0px"
	 viewBox="-594 374 40 40" style="enable-background:new -594 374 40 40;" xml:space="preserve">
<style type="text/css">
	.st0{fill:#C2BFD9;}
</style>
<g id="XMLID_1_">
	<path id="XMLID_8_" class="st0" d="M-566,401h-0.4c-3.4,0-6.1-4.3-8.8-8.5c-2.8-4.7-5.8-9.5-10.4-9.5h-3.4v2h3.4
		c3.4,0,6.1,4.3,8.8,8.5c2.8,4.7,5.8,9.5,10.4,9.5h0.4v3l5-4l-5-4V401z"/>
	<path id="XMLID_9_" class="st0" d="M-585.6,401h-3.4v2h3.4c3.4,0,5.8-2.7,7.3-4.8l-1.6-1.2C-581.9,399.8-583.7,401-585.6,401z"/>
	<path id="XMLID_48_" class="st0" d="M-566.4,385h0.4v3l5-4l-5-4v3h-0.4c-3.4,0-5.8,2.7-7.4,4.8l1.6,1.2
		C-570.1,386.2-568.3,385-566.4,385z"/>
</g>
</svg>
